<svg id="Logo" xmlns="http://www.w3.org/2000/svg" width="740" height="175" viewBox="0 0 740 175">
  <defs>
    <style>
      .cls-1, .cls-2 {
        fill-rule: evenodd;
      }

      .cls-2 {
        fill: #fff;
      }
    </style>
  </defs>
  <g id="Isologo">
    <path id="Rectángulo_1" data-name="Rectángulo 1" class="cls-1" d="M20.952,0.465H218.43V155.008a20,20,0,0,1-20,20H20.952a20,20,0,0,1-20-20V20.465A20,20,0,0,1,20.952.465Z"/>
    <path id="ernative" class="cls-1" d="M276.2,114.814a21.516,21.516,0,0,1-5.977,5.8,14.839,14.839,0,0,1-8.086,2.109,14.047,14.047,0,0,1-14.414-11.513h45.967v-6.768q0-15.731-8.086-24.961-8.173-9.315-22.412-9.316a40.407,40.407,0,0,0-14.238,2.461,36.2,36.2,0,0,0-11.426,6.943,33.317,33.317,0,0,0-7.822,10.723,34.456,34.456,0,0,0-2.813,14.15,34.849,34.849,0,0,0,2.813,14.151,33.053,33.053,0,0,0,7.822,10.81,34.909,34.909,0,0,0,11.426,6.856,40.423,40.423,0,0,0,14.238,2.461,36.528,36.528,0,0,0,15.205-3.34,33.268,33.268,0,0,0,12.569-9.932ZM247.637,96.621a12.291,12.291,0,0,1,3.779-7.559q3.6-3.6,9.756-3.6a11.5,11.5,0,0,1,8.613,3.428,10.226,10.226,0,0,1,3.252,7.734h-25.4Zm58.116,40.518h20.655V109.892a66.042,66.042,0,0,1,.527-8.7,16.807,16.807,0,0,1,2.285-6.767,10.851,10.851,0,0,1,4.922-4.219,22.3,22.3,0,0,1,8.965-1.494,24.179,24.179,0,0,1,4.131.351q0.526,0.089,1.23.264,1.494,0.264,3.516.7V71.045a18.749,18.749,0,0,0-3.6-.7h-0.263a31.22,31.22,0,0,0-3.252-.176q-6.857,0-11.25,3.164a26.282,26.282,0,0,0-7.559,8.965h0.352V71.836H305.753v65.3Zm54.865,0h20.654v-32.52a38.6,38.6,0,0,1,.44-5.977,12.754,12.754,0,0,1,1.67-5.1,9.391,9.391,0,0,1,3.428-3.516,12.085,12.085,0,0,1,6.064-1.318,8.7,8.7,0,0,1,5.625,1.582,9.161,9.161,0,0,1,2.9,3.867,16.118,16.118,0,0,1,1.143,5.361v0.528q0.175,2.635.176,5.185v31.905h20.654v-35.86a79.425,79.425,0,0,0-.879-12.217,26.866,26.866,0,0,0-3.428-9.844,17.943,17.943,0,0,0-7.382-6.592q-4.836-2.46-12.481-2.461-7.471,0-12.305,3.428a20.746,20.746,0,0,0-6.679,7.031h0.351V71.836H360.618v65.3Zm117.355,0h19.072V103.916A66.053,66.053,0,0,0,495.639,89.5a24.927,24.927,0,0,0-4.746-10.547,20.746,20.746,0,0,0-9.14-6.592,41.312,41.312,0,0,0-14.5-2.2A47.422,47.422,0,0,0,451.518,72.8a37.6,37.6,0,0,0-13.359,8.262l11.25,11.426a25.083,25.083,0,0,1,7.47-5.8,19.558,19.558,0,0,1,8.7-1.934,13.082,13.082,0,0,1,8.789,3.076,9.569,9.569,0,0,1,3.6,7.559q-5.889,0-13.535.352a54.41,54.41,0,0,0-14.326,2.549,28.235,28.235,0,0,0-11.338,6.855q-4.571,4.746-4.57,13.184a19.742,19.742,0,0,0,1.933,8.789,19.434,19.434,0,0,0,5.186,6.5,23.336,23.336,0,0,0,7.383,3.867,31.841,31.841,0,0,0,8.789,1.231,31.239,31.239,0,0,0,11.865-2.286,19.64,19.64,0,0,0,8.965-7.382h-0.352v8.086Zm0-28.3v3.955a9.673,9.673,0,0,1-4.57,8.613,18.077,18.077,0,0,1-10.108,2.988,12.989,12.989,0,0,1-6.152-1.582,5.517,5.517,0,0,1-2.988-5.009,6.069,6.069,0,0,1,2.021-4.834,13.282,13.282,0,0,1,5.186-2.725,27.654,27.654,0,0,1,6.416-1.23h1.055q2.635-.175,4.482-0.176h4.658Zm76.486-37h-17.49v-18.9h-20.83v18.9H503.307V88.711h12.832v30.146A20.661,20.661,0,0,0,517.985,128a16.7,16.7,0,0,0,5.009,6.152,21.248,21.248,0,0,0,7.647,3.516,40.545,40.545,0,0,0,9.316,1.055,60.21,60.21,0,0,0,7.295-.44,39.886,39.886,0,0,0,7.207-1.582V123.428q3.956-3.429-1.494-2.9-5.451.617-7.3,0.615-5.889,0-7.295-3.164a20.526,20.526,0,0,1-1.406-8.261V88.711h17.49V71.836Zm10.217,65.3h20.83v-65.3h-20.83v65.3Zm1.845-76.553a12.086,12.086,0,0,0,20.655-8.525,11.613,11.613,0,0,0-3.516-8.525,12.426,12.426,0,0,0-17.139,0,11.608,11.608,0,0,0-3.515,8.525,11.993,11.993,0,0,0,3.515,8.525h0Zm53.107,76.553h21.621l25.928-65.3H646l-15.117,43.681h0.44L615.146,71.836h-22.5ZM721.6,114.814a21.512,21.512,0,0,1-5.976,5.8,14.843,14.843,0,0,1-8.086,2.109,14.047,14.047,0,0,1-14.414-11.513h45.967v-6.768q0-15.731-8.086-24.961-8.173-9.315-22.412-9.316a40.413,40.413,0,0,0-14.239,2.461,36.2,36.2,0,0,0-11.425,6.943,33.319,33.319,0,0,0-7.823,10.723,34.456,34.456,0,0,0-2.812,14.15,34.849,34.849,0,0,0,2.812,14.151,33.055,33.055,0,0,0,7.823,10.81,34.9,34.9,0,0,0,11.425,6.856,40.428,40.428,0,0,0,14.239,2.461,36.531,36.531,0,0,0,15.2-3.34,33.264,33.264,0,0,0,12.568-9.932ZM693.038,96.621a12.291,12.291,0,0,1,3.779-7.559q3.6-3.6,9.756-3.6a11.5,11.5,0,0,1,8.613,3.428,10.222,10.222,0,0,1,3.252,7.734h-25.4Z"/>
    <path id="Alt" class="cls-2" d="M26.208,137H50.026l7.734-19.775H93.8L101.882,137h24.17L84.743,42.346h-17.4ZM86.413,98.86h-21.8l10.9-27.51ZM138.905,137h20.83V36.018h-20.83V137Zm79.913-65.3h-17.49V52.8H180.5V71.7H167.666V88.576H180.5v30.147a20.657,20.657,0,0,0,1.846,9.14,16.7,16.7,0,0,0,5.01,6.153A21.249,21.249,0,0,0,195,137.531a40.545,40.545,0,0,0,9.316,1.055,60.413,60.413,0,0,0,7.295-.439,39.971,39.971,0,0,0,7.207-1.582V123.293q3.956-3.428-1.494-2.9-5.449.615-7.3,0.615-5.889,0-7.295-3.164a20.531,20.531,0,0,1-1.406-8.262V88.576h17.49V71.7Z"/>
  </g>
</svg>
